<?xml version="1.0" encoding="iso-8859-1"?>
<!-- Generator: Adobe Illustrator 19.0.0, SVG Export Plug-In . SVG Version: 6.00 Build 0)  -->
<svg version="1.1" id="Layer_1" xmlns="http://www.w3.org/2000/svg" xmlns:xlink="http://www.w3.org/1999/xlink" x="0px" y="0px"
	 viewBox="0 0 490.667 490.667" style="enable-background:new 0 0 490.667 490.667;" xml:space="preserve">
<g>
	<g>
		<g>
			<path d="M195.115,323.136c-4.16,4.16-4.16,10.923,0,15.083c2.091,2.069,4.821,3.115,7.552,3.115c2.731,0,5.461-1.045,7.531-3.115
				l85.333-85.333c0.981-0.981,1.771-2.176,2.304-3.477c0.299-0.747,0.341-1.515,0.469-2.304c0.107-0.597,0.363-1.152,0.363-1.771
				c0-0.811-0.299-1.536-0.469-2.283c-0.128-0.576-0.128-1.195-0.363-1.749c-0.555-1.344-1.365-2.539-2.368-3.563l-85.269-85.269
				c-4.16-4.16-10.923-4.16-15.083,0c-4.16,4.16-4.16,10.923,0,15.083l67.136,67.115H10.667C4.779,234.667,0,239.445,0,245.333
				S4.779,256,10.667,256h251.584L195.115,323.136z"/>
			<path d="M437.333,0H202.667c-29.397,0-53.333,23.936-53.333,53.333V160c0,5.888,4.779,10.667,10.667,10.667
				s10.667-4.779,10.667-10.667V53.333c0-17.643,14.357-32,32-32h234.667c17.643,0,32,14.357,32,32v384c0,17.643-14.357,32-32,32
				H202.667c-17.643,0-32-14.357-32-32V330.667c0-5.888-4.779-10.667-10.667-10.667s-10.667,4.779-10.667,10.667v106.667
				c0,29.397,23.936,53.333,53.333,53.333h234.667c29.397,0,53.333-23.936,53.333-53.333v-384C490.667,23.936,466.731,0,437.333,0z"
				/>
		</g>
	</g>
</g>
<g>
</g>
<g>
</g>
<g>
</g>
<g>
</g>
<g>
</g>
<g>
</g>
<g>
</g>
<g>
</g>
<g>
</g>
<g>
</g>
<g>
</g>
<g>
</g>
<g>
</g>
<g>
</g>
<g>
</g>
</svg>
